<svg width="401" height="104" viewBox="0 0 401 104" fill="none" xmlns="http://www.w3.org/2000/svg">
<path d="M23.8226 102.544C33.7656 100.258 44.8071 98.3349 53.5 98.3349C62.2166 98.3349 73.2948 100.269 83.259 102.563C97.1178 105.753 110.094 90.8662 103.01 77.1522L68.3915 10.1353C62.0996 -2.04507 44.9005 -2.04513 38.6085 10.1353L3.99012 77.1522C-2.92555 90.5401 9.27629 105.046 22.754 102.76L22.7603 102.788L23.7201 102.567C23.727 102.566 23.734 102.564 23.741 102.563C23.7682 102.556 23.7954 102.55 23.8226 102.544ZM45.7935 13.9289C49.0541 7.61682 57.9459 7.61683 61.2065 13.9289L95.8249 80.9458C99.4473 87.9584 92.7356 96.3397 85.0589 94.5723C74.9485 92.2446 63.1519 90.1401 53.5 90.1401C43.8481 90.1401 32.0515 92.2446 21.941 94.5723C14.2644 96.3397 7.55269 87.9583 11.1751 80.9458L45.7935 13.9289Z" fill="url(#paint0_linear_243_6516)" stroke="#00FFB2" stroke-width="2"/>
<path fill-rule="evenodd" clip-rule="evenodd" d="M22.1654 95.5468L23.5166 101.588C10.4231 104.603 -1.78449 90.51 4.87859 77.6111L39.497 10.5942C45.4163 -0.864774 61.5837 -0.864722 67.503 10.5943L102.121 77.6112C108.785 90.5101 96.5768 104.603 83.4834 101.588C73.5012 99.2899 62.3333 97.3349 53.5 97.3349C44.6666 97.3349 33.4988 99.2899 23.5166 101.588L22.1654 95.5468ZM44.905 13.4699C48.5383 6.43647 58.4617 6.43649 62.095 13.4699L96.7133 80.4869C100.744 88.2906 93.3032 97.4966 84.8346 95.5468C74.7423 93.2233 63.0352 91.1401 53.5 91.1401C43.9647 91.1401 32.2576 93.2233 22.1654 95.5468C13.6968 97.4966 6.2555 88.2906 10.2866 80.4868L44.905 13.4699Z" fill="url(#paint1_linear_243_6516)"/>
<path fill-rule="evenodd" clip-rule="evenodd" d="M24.0461 103.519C33.971 101.237 44.9235 99.3349 53.5002 99.3349C62.1002 99.3349 73.0888 101.247 83.0349 103.537C97.6591 106.904 111.404 91.2225 103.899 76.6933L69.2802 9.67636C62.6156 -3.22542 44.3849 -3.22548 37.7203 9.67634L3.10189 76.6933C-4.0624 90.5624 8.13649 105.482 21.98 103.88L22.0043 103.989L23.9441 103.542C23.9513 103.54 23.9584 103.539 23.9656 103.537C23.9924 103.531 24.0192 103.525 24.0461 103.519ZM23.3165 101.633C23.3833 101.618 23.45 101.603 23.5168 101.588C24.1624 101.439 24.813 101.292 25.4676 101.147C34.9339 99.0452 45.2382 97.3349 53.5002 97.3349C62.3336 97.3349 73.5014 99.2899 83.4836 101.588C96.577 104.603 108.785 90.5101 102.122 77.6112L67.5032 10.5943C61.584 -0.864722 45.4165 -0.864774 39.4972 10.5942L4.87882 77.6111C-1.44753 89.8582 9.23771 103.181 21.5408 101.916C22.1289 101.856 22.7207 101.762 23.3145 101.633M22.036 95.5758C13.6213 97.4026 6.27632 88.2508 10.2869 80.4868L44.9053 13.4699C48.5385 6.43647 58.462 6.43649 62.0952 13.4699L96.7136 80.4869C100.745 88.2906 93.3034 97.4966 84.8348 95.5468C74.7426 93.2233 63.0355 91.1401 53.5002 91.1401C43.965 91.1401 32.2579 93.2233 22.1656 95.5468C22.1224 95.5568 22.0792 95.5665 22.036 95.5758C22.036 95.5758 22.036 95.5758 22.036 95.5758ZM60.3183 14.3878C57.4303 8.79718 49.5701 8.79718 46.6822 14.3878L12.0638 81.4047C8.8501 87.6261 14.8323 95.1829 21.7169 93.5978C31.8455 91.2659 43.7317 89.1401 53.5002 89.1401C63.2687 89.1401 75.1549 91.2659 85.2835 93.5978C92.1681 95.1829 98.1504 87.6261 94.9367 81.4047L60.3183 14.3878Z" fill="#00FFB2"/>
<path d="M136.62 61.466C138.469 59.4243 139.393 57.0167 139.393 54.2432C139.393 51.5082 138.469 49.1199 136.62 47.0782C134.771 45.0751 132.44 44.0736 129.628 44.0736C126.816 44.0736 124.486 45.0751 122.637 47.0782C120.788 49.1199 119.863 51.5082 119.863 54.2432C119.863 57.0167 120.788 59.4243 122.637 61.466C124.486 63.4691 126.816 64.4706 129.628 64.4706C132.44 64.4706 134.771 63.4691 136.62 61.466ZM147.598 71H139.393V66.0885H139.278C136.35 70.0177 132.633 71.9823 128.126 71.9823C123.157 71.9823 119.112 70.3066 115.992 66.9553C112.871 63.6039 111.311 59.3665 111.311 54.2432C111.311 49.1584 112.871 44.9403 115.992 41.5889C119.112 38.2376 123.157 36.5619 128.126 36.5619C132.671 36.5619 136.389 38.5072 139.278 42.3979H139.393V37.5442H147.598V71ZM162.711 51.4697V71H154.506V37.5442H162.075V42.3401H162.191C163.154 40.5681 164.521 39.1621 166.293 38.122C168.104 37.0819 170.184 36.5619 172.534 36.5619C176.386 36.5619 179.506 37.8909 181.894 40.5488C184.321 43.1298 185.535 46.5389 185.535 50.7763V71H177.33V51.4697C177.33 49.428 176.617 47.6946 175.192 46.2693C173.728 44.8055 172.014 44.0736 170.049 44.0736C168.046 44.0736 166.312 44.8055 164.849 46.2693C163.423 47.6946 162.711 49.428 162.711 51.4697ZM214.061 37.5442H222.555L205.799 80.8807H197.362L201.465 70.2488L188.753 37.5442H197.247L205.625 59.328H205.741L214.061 37.5442ZM251.741 54.2432C251.741 51.1615 250.855 48.6769 249.083 46.7893C247.311 44.8247 244.942 43.8424 241.976 43.8424C239.01 43.8424 236.641 44.8247 234.869 46.7893C233.097 48.7154 232.211 51.2 232.211 54.2432C232.211 57.3249 233.097 59.8288 234.869 61.7549C236.641 63.7195 239.01 64.7018 241.976 64.7018C244.942 64.7018 247.311 63.7387 249.083 61.8126C250.855 59.8866 251.741 57.3634 251.741 54.2432ZM260.293 54.2432C260.293 59.251 258.521 63.4691 254.977 66.8975C251.471 70.2874 247.138 71.9823 241.976 71.9823C236.853 71.9823 232.519 70.2874 228.975 66.8975C225.431 63.4691 223.659 59.251 223.659 54.2432C223.659 49.2739 225.431 45.0751 228.975 41.6467C232.519 38.2568 236.853 36.5619 241.976 36.5619C247.138 36.5619 251.471 38.2568 254.977 41.6467C258.521 45.0751 260.293 49.2739 260.293 54.2432ZM274.268 51.4697V71H266.063V37.5442H273.633V42.3401H273.748C274.711 40.5681 276.079 39.1621 277.851 38.122C279.661 37.0819 281.742 36.5619 284.091 36.5619C287.944 36.5619 291.064 37.8909 293.452 40.5488C295.879 43.1298 297.092 46.5389 297.092 50.7763V71H288.887V51.4697C288.887 49.428 288.175 47.6946 286.749 46.2693C285.286 44.8055 283.571 44.0736 281.607 44.0736C279.604 44.0736 277.87 44.8055 276.406 46.2693C274.981 47.6946 274.268 49.428 274.268 51.4697ZM339.113 54.2432C339.113 55.3218 338.959 56.5737 338.651 57.999H311.667C312.129 59.8866 313.227 61.5045 314.96 62.8527C316.771 64.201 318.793 64.8751 321.027 64.8751C322.607 64.8751 324.07 64.5091 325.419 63.7772C326.767 63.0453 327.807 62.1016 328.539 60.9459H337.437C336.243 64.2973 334.144 66.9745 331.139 68.9776C328.173 70.9807 324.802 71.9823 321.027 71.9823C315.942 71.9823 311.647 70.2874 308.142 66.8975C304.636 63.5076 302.884 59.2895 302.884 54.2432C302.884 49.2739 304.656 45.0751 308.2 41.6467C311.705 38.2568 316.019 36.5619 321.143 36.5619C326.074 36.5619 330.311 38.2761 333.855 41.7045C337.36 45.0944 339.113 49.2739 339.113 54.2432ZM311.782 50.8918H330.33C329.868 48.7346 328.809 46.9627 327.152 45.5759C325.534 44.1891 323.531 43.4957 321.143 43.4957C318.754 43.4957 316.713 44.2084 315.018 45.6337C313.323 47.0204 312.244 48.7732 311.782 50.8918Z" fill="url(#paint2_linear_243_6516)"/>
<path d="M344.562 71L359.817 27.6634H368.715L383.969 71H375.129L372.413 63.1416H356.118L353.403 71H344.562ZM364.035 37.602L358.95 55.2833H369.582L364.497 37.602H364.035ZM396.503 71H388.298V27.6634H396.503V71Z" fill="white"/>
<defs>
<linearGradient id="paint0_linear_243_6516" x1="21.6698" y1="-52.6289" x2="188.961" y2="24.1359" gradientUnits="userSpaceOnUse">
<stop stop-color="#00FFB2"/>
<stop offset="1" stop-color="#56E6F3"/>
</linearGradient>
<linearGradient id="paint1_linear_243_6516" x1="21.6698" y1="-52.6289" x2="188.961" y2="24.1359" gradientUnits="userSpaceOnUse">
<stop stop-color="#00FFB2"/>
<stop offset="1" stop-color="#56E6F3"/>
</linearGradient>
<linearGradient id="paint2_linear_243_6516" x1="152.07" y1="-31.2494" x2="324.595" y2="194.221" gradientUnits="userSpaceOnUse">
<stop stop-color="#00FFB2"/>
<stop offset="1" stop-color="#56E6F3"/>
</linearGradient>
</defs>
</svg>
